<svg width="23" height="23" viewBox="0 0 23 23" fill="none" xmlns="http://www.w3.org/2000/svg">
<path d="M7.59755 16.0929H19.678V16.352H7.12313C6.43289 16.352 5.86399 15.7831 5.86399 15.0929C5.86399 14.869 5.92151 14.6676 6.01463 14.5046L6.01848 14.4979L6.02222 14.4911L7.54714 11.7236L7.79427 11.2752L7.57482 10.8125L3.50837 2.23904L3.23732 1.66759H2.60485H1.3457V1.40845H3.40446L4.19618 3.09295L4.46626 3.66759H5.1012H21.8076C21.8401 3.66759 21.8717 3.67999 21.8982 3.70651C21.9247 3.73303 21.9371 3.76464 21.9371 3.79716C21.9371 3.81571 21.9349 3.83132 21.9322 3.84195C21.9315 3.84483 21.9309 3.84692 21.9305 3.84826L21.9296 3.84976L21.926 3.85635L17.8821 11.1873L17.8809 11.1894C17.6694 11.5751 17.2569 11.8337 16.781 11.8337H8.36566H7.7755L7.49024 12.3504L6.47363 14.1916L6.41055 14.3058L6.37891 14.4324L6.34502 14.568L6.31516 14.6874V14.8105C6.31516 15.5209 6.88713 16.0929 7.59755 16.0929ZM5.87529 20.7407C5.87529 20.044 6.4394 19.4816 7.12313 19.4816C7.81338 19.4816 8.38228 20.0505 8.38228 20.7407C8.38228 21.431 7.81338 21.9999 7.12313 21.9999C6.4394 21.9999 5.87529 21.4375 5.87529 20.7407ZM17.171 20.7407C17.171 20.044 17.7351 19.4816 18.4189 19.4816C19.1091 19.4816 19.678 20.0505 19.678 20.7407C19.678 21.431 19.1091 21.9999 18.4189 21.9999C17.7351 21.9999 17.171 21.4375 17.171 20.7407Z" stroke="#DB3E6D" stroke-width="2"/>
</svg>
