<svg width="31" height="31" viewBox="0 0 31 31" fill="none" xmlns="http://www.w3.org/2000/svg">
<path fill-rule="evenodd" clip-rule="evenodd" d="M15.4756 30.9138C23.7599 30.9138 30.4756 24.1981 30.4756 15.9138C30.4756 7.62955 23.7599 0.913818 15.4756 0.913818C7.19131 0.913818 0.475586 7.62955 0.475586 15.9138C0.475586 24.1981 7.19131 30.9138 15.4756 30.9138ZM19.692 9.60564C20.8032 9.60564 21.7838 10.5862 21.7838 11.6975V20.1302C21.7838 21.2415 20.8032 22.222 19.692 22.222H17.4694V17.45H19.5612V15.3582H17.4694V14.5084C17.4694 14.1162 17.6655 13.92 17.8616 13.92H19.5612V11.8282H17.8616C16.5542 11.8282 15.5083 13.0702 15.5083 14.5084V15.3582H13.9394V17.45H15.5083V22.222H11.2593C10.148 22.222 9.16742 21.2415 9.16742 20.1302V11.6975C9.16742 10.5862 10.148 9.60564 11.2593 9.60564H19.692Z" fill="#DB3E6D"/>
</svg>
