<svg width="16" height="15" viewBox="0 0 16 15" fill="none" xmlns="http://www.w3.org/2000/svg">
<path d="M11.6757 0.822266C10.3439 0.822266 9.06572 1.44222 8.23145 2.42191C7.39719 1.44222 6.119 0.822266 4.78724 0.822266C2.42986 0.822266 0.577637 2.67449 0.577637 5.03186C0.577637 7.92501 3.17993 10.2824 7.12165 13.8644L8.23145 14.867L9.34126 13.8567C13.283 10.2824 15.8853 7.92501 15.8853 5.03186C15.8853 2.67449 14.033 0.822266 11.6757 0.822266ZM8.30799 12.7239L8.23145 12.8005L8.15491 12.7239C4.5117 9.42515 2.1084 7.24382 2.1084 5.03186C2.1084 3.5011 3.25647 2.35303 4.78724 2.35303C5.96592 2.35303 7.114 3.11076 7.51965 4.15933H8.95091C9.34891 3.11076 10.497 2.35303 11.6757 2.35303C13.2064 2.35303 14.3545 3.5011 14.3545 5.03186C14.3545 7.24382 11.9512 9.42515 8.30799 12.7239Z" fill="#DB3E6D"/>
</svg>
