<svg width="31" height="31" viewBox="0 0 31 31" fill="none" xmlns="http://www.w3.org/2000/svg">
<path fill-rule="evenodd" clip-rule="evenodd" d="M15.054 30.9138C23.3382 30.9138 30.054 24.1981 30.054 15.9138C30.054 7.62955 23.3382 0.913818 15.054 0.913818C6.76968 0.913818 0.0539551 7.62955 0.0539551 15.9138C0.0539551 24.1981 6.76968 30.9138 15.054 30.9138ZM10.8684 9.91384H19.9895C21.0193 9.91384 21.804 10.6985 21.804 11.7283V20.8494C21.804 21.8792 21.0193 22.6638 19.9895 22.6638H10.8684C9.83857 22.6638 9.05396 21.8792 9.05396 20.8494V11.7283C9.05396 10.6985 9.83857 9.91384 10.8684 9.91384ZM19.254 16.436C19.254 18.4465 17.5376 20.1138 15.429 20.1138C13.3203 20.1138 11.604 18.4465 11.653 16.3869C11.653 16.0436 11.702 15.7004 11.8001 15.3571H10.6722V20.6042C10.6722 20.8985 10.9174 21.0946 11.1626 21.0946H19.6953C19.9895 21.0946 20.1857 20.8494 20.1857 20.6042V15.4061H19.1068C19.2049 15.7004 19.254 16.0927 19.254 16.436ZM12.977 16.2398C12.977 17.5638 14.0559 18.6427 15.429 18.6427C16.802 18.6427 17.8809 17.6129 17.8809 16.2398C17.8809 14.9158 16.802 13.8369 15.429 13.8369C14.0559 13.8369 12.977 14.9158 12.977 16.2398ZM19.5972 13.935C19.8915 13.935 20.1367 13.6898 20.1367 13.3956V12.0715C20.1367 11.7773 19.8915 11.5321 19.5972 11.5321H18.2241C17.9299 11.5321 17.6847 11.7773 17.6847 12.0715V13.3956C17.6847 13.6898 17.9299 13.935 18.2241 13.935H19.5972Z" fill="#DB3E6D"/>
</svg>
