<svg width="31" height="31" viewBox="0 0 31 31" fill="none" xmlns="http://www.w3.org/2000/svg">
<path fill-rule="evenodd" clip-rule="evenodd" d="M15.6853 30.9138C23.9696 30.9138 30.6853 24.1981 30.6853 15.9138C30.6853 7.62955 23.9696 0.913818 15.6853 0.913818C7.40103 0.913818 0.685303 7.62955 0.685303 15.9138C0.685303 24.1981 7.40103 30.9138 15.6853 30.9138ZM15.5285 16.4343C17.946 16.4343 19.9138 14.5228 19.9138 12.1053C19.9138 10.9246 19.464 9.80022 18.6207 8.95691C17.7774 8.1136 16.7092 7.66383 15.5848 7.66383C13.1673 7.66383 11.2558 9.63156 11.1996 11.9928C11.1996 13.1735 11.6493 14.2417 12.4926 15.085C13.2797 15.9845 14.3479 16.4343 15.5285 16.4343ZM14.2917 10.8122C14.629 10.4749 15.0788 10.3062 15.5285 10.3062C16.5405 10.3062 17.2714 11.0933 17.2714 12.0491C17.2714 13.061 16.4843 13.7919 15.5285 13.7919C14.5166 13.7919 13.7857 13.0048 13.7857 12.0491C13.7857 11.5993 13.9544 11.1495 14.2917 10.8122ZM20.3635 18.0085C20.7571 17.6149 20.8133 17.0527 20.476 16.4905C20.1949 16.0407 19.6889 15.8158 19.1267 15.9283C18.9018 15.9845 18.6769 16.097 18.452 16.2656C16.7092 17.4463 14.3479 17.39 12.6051 16.2094L12.2677 16.0407C11.6493 15.7596 11.0309 15.8721 10.6936 16.4343C10.3 16.9965 10.3562 17.6149 10.8622 18.1209C10.9021 18.1607 10.9419 18.1935 10.9792 18.2242C11.0473 18.2802 11.107 18.3294 11.1433 18.402L11.1996 18.4582C11.9866 19.0766 12.9424 19.4702 14.1793 19.6389L13.4484 20.3697L11.5369 22.2812C11.3682 22.4499 11.1433 22.731 11.1433 23.1245C11.1433 23.6305 11.4244 24.1365 11.9304 24.3614C12.0991 24.4738 12.2677 24.4738 12.4364 24.4738C12.7175 24.4738 13.0548 24.3614 13.2797 24.0803L15.4723 21.8877L15.5165 21.8435L15.5285 21.8315C15.5285 21.8315 15.5848 21.8315 15.5848 21.8877C15.8097 22.1407 16.0486 22.3796 16.2875 22.6186C16.5265 22.8575 16.7654 23.0964 16.9903 23.3494L17.6649 24.0241C17.946 24.3052 18.1709 24.4176 18.5083 24.4176C19.0142 24.4738 19.5764 24.1365 19.8013 23.6305C20.0262 23.1808 19.9138 22.6186 19.5202 22.2812C19.3349 22.0959 19.1495 21.9044 18.9621 21.7108L18.9621 21.7108L18.962 21.7107L18.962 21.7107C18.5811 21.3172 18.1919 20.9152 17.7774 20.5384L16.8216 19.5826C17.3276 19.5264 17.8898 19.414 18.3958 19.1891C19.2391 18.908 19.8575 18.5144 20.3635 18.0085Z" fill="#DB3E6D"/>
</svg>
