<svg width="30" height="31" viewBox="0 0 30 31" fill="none" xmlns="http://www.w3.org/2000/svg">
<path fill-rule="evenodd" clip-rule="evenodd" d="M15.001 30.9138C23.2852 30.9138 30.001 24.1981 30.001 15.9138C30.001 7.62955 23.2852 0.913818 15.001 0.913818C6.71671 0.913818 0.000976562 7.62955 0.000976562 15.9138C0.000976562 24.1981 6.71671 30.9138 15.001 30.9138ZM10.4626 17.4803L7.014 16.1944C6.6633 16.0775 6.6633 15.5514 7.014 15.4345L21.2174 9.94023C21.5097 9.82333 21.8019 10.1156 21.7435 10.4078L19.1716 22.6824C19.1132 22.9746 18.7625 23.0915 18.5287 22.9162L15.0801 20.4028C14.8463 20.2275 14.5541 20.2275 14.3787 20.4028L12.4499 21.981C12.2161 22.1563 11.8654 22.0979 11.8069 21.8056L10.4626 17.4803ZM18.4118 12.6874L11.6316 16.8373C11.3393 16.9542 11.2224 17.305 11.3978 17.5972L12.0992 20.169C12.1576 20.4028 12.4499 20.3444 12.4499 20.169L12.6252 18.7662C12.6252 18.474 12.8006 18.2402 12.9759 18.0648L18.5287 12.8627C18.6456 12.8043 18.5287 12.6289 18.4118 12.6874Z" fill="#DB3E6D"/>
</svg>
