<svg width="31" height="31" viewBox="0 0 31 31" fill="none" xmlns="http://www.w3.org/2000/svg">
<path fill-rule="evenodd" clip-rule="evenodd" d="M15.1069 30.9138C23.3912 30.9138 30.1069 24.1981 30.1069 15.9138C30.1069 7.62955 23.3912 0.913818 15.1069 0.913818C6.82266 0.913818 0.106934 7.62955 0.106934 15.9138C0.106934 24.1981 6.82266 30.9138 15.1069 30.9138ZM17.8794 8.57894H15.9583V18.6207H15.9714C15.9461 19.1714 15.7618 19.704 15.4394 20.1534C15.0915 20.6383 14.6003 21.002 14.0349 21.1933C13.4695 21.3845 12.8584 21.3937 12.2875 21.2195C11.7167 21.0453 11.2148 20.6966 10.8525 20.2223C10.4902 19.748 10.2857 19.172 10.2677 18.5755C10.2498 17.9789 10.4194 17.3917 10.7526 16.8965C11.0858 16.4013 11.5658 16.0231 12.1252 15.815C12.6846 15.6068 13.2951 15.5793 13.8709 15.7362L14.3719 13.8983C13.4117 13.6366 12.3936 13.6825 11.4609 14.0295C10.5281 14.3766 9.72763 15.0073 9.17204 15.8331C8.61645 16.6588 8.33371 17.6379 8.3636 18.6327C8.39348 19.6275 8.73449 20.5878 9.33865 21.3787C9.9428 22.1696 10.7797 22.7511 11.7316 23.0416C12.6835 23.332 13.7025 23.3167 14.6453 22.9978C15.588 22.6789 16.4071 22.0725 16.9872 21.2638C17.5419 20.4907 17.8515 19.5699 17.8776 18.6207H17.8794V8.57894ZM17.8794 8.57894L17.8794 12.7703L21.8524 14.473V12.7703L17.8794 8.57894Z" fill="#DB3E6D"/>
</svg>
