<svg width="31" height="31" viewBox="0 0 31 31" fill="none" xmlns="http://www.w3.org/2000/svg">
<path fill-rule="evenodd" clip-rule="evenodd" d="M15.7913 30.9138C24.0755 30.9138 30.7913 24.1981 30.7913 15.9138C30.7913 7.62955 24.0755 0.913818 15.7913 0.913818C7.50699 0.913818 0.79126 7.62955 0.79126 15.9138C0.79126 24.1981 7.50699 30.9138 15.7913 30.9138ZM21.3206 12.0064C21.9104 11.9327 22.5002 11.7852 23.0163 11.564C22.6477 12.1538 22.1316 12.6699 21.5418 12.8911V13.2597C21.5418 17.1671 18.5928 21.6644 13.1371 21.6644C11.4415 21.6644 9.89324 21.1483 8.56619 20.3373C8.86107 20.411 9.08223 20.411 9.30339 20.411H9.30344C10.7042 20.411 11.9575 19.9687 12.9897 19.1577C11.6626 19.1577 10.5568 18.273 10.1881 17.0934C10.4093 17.1671 10.5568 17.1672 10.7779 17.1672C11.0728 17.1672 11.3677 17.1671 11.5889 17.0934C10.2619 16.8722 9.22971 15.6189 9.22971 14.2182C9.59834 14.4393 10.0407 14.5868 10.5568 14.5868C9.74579 14.0707 9.22971 13.186 9.22971 12.1538C9.22971 11.6378 9.37716 11.1217 9.59834 10.6793C11.0728 12.4487 13.2846 13.6283 15.7175 13.7758C15.6438 13.5546 15.6438 13.3335 15.6438 13.1123C15.6438 11.4903 16.9708 10.1633 18.5928 10.1633C19.4038 10.1633 20.2147 10.5319 20.7308 11.1217C21.4681 10.9743 22.0579 10.7531 22.6477 10.3845C22.4265 11.048 21.9104 11.6378 21.3206 12.0064Z" fill="#DB3E6D"/>
</svg>
