<svg width="31" height="31" viewBox="0 0 31 31" fill="none" xmlns="http://www.w3.org/2000/svg">
<path fill-rule="evenodd" clip-rule="evenodd" d="M15.3696 30.9138C23.6539 30.9138 30.3696 24.1981 30.3696 15.9138C30.3696 7.62955 23.6539 0.913818 15.3696 0.913818C7.08536 0.913818 0.369629 7.62955 0.369629 15.9138C0.369629 24.1981 7.08536 30.9138 15.3696 30.9138ZM22.6931 19.6881C22.7087 19.7036 22.7243 19.7192 22.7243 19.7503V19.7503C22.7243 19.8126 22.7243 19.8749 22.8488 19.9994V20.2485C22.8488 20.373 22.7865 20.4353 22.662 20.4975C22.5375 20.5598 22.3507 20.6221 22.1639 20.6221L20.0468 20.6843H20.0467C19.9222 20.6843 19.7977 20.6843 19.6109 20.6221C19.4241 20.5598 19.2996 20.4975 19.175 20.4353L18.9882 20.3107C18.8637 20.2485 18.6769 20.0617 18.4279 19.8127L18.4278 19.8126L18.4276 19.8124C18.1787 19.5634 17.9919 19.3767 17.8674 19.1899C17.7429 19.0031 17.5561 18.8163 17.3693 18.6918C17.2447 18.5672 17.0579 18.505 16.9334 18.5672H16.8712L16.7466 18.6918C16.6843 18.754 16.6221 18.8163 16.5598 18.9409C16.5248 19.0108 16.5095 19.0807 16.4918 19.1617C16.4779 19.2249 16.4626 19.2948 16.4353 19.3767C16.373 19.5635 16.373 19.7503 16.373 19.9994V20.2485C16.373 20.2796 16.3574 20.2952 16.3419 20.3107C16.3263 20.3263 16.3107 20.3419 16.3107 20.373L16.2485 20.4353C16.1239 20.5598 15.9994 20.6221 15.8126 20.6221H14.8786C14.505 20.6843 14.1314 20.6221 13.6955 20.4975C13.3219 20.373 12.9483 20.2485 12.637 20.0617L12.6369 20.0616C12.3256 19.8748 12.0143 19.688 11.7652 19.5013C11.5162 19.3145 11.3294 19.1277 11.2049 19.0032L11.2048 19.0031L11.018 18.8163L10.769 18.5672C10.7067 18.4427 10.5199 18.1936 10.2086 17.82C10.0142 17.5869 9.84418 17.3294 9.6681 17.0629C9.56206 16.9024 9.45384 16.7385 9.33682 16.5747C9.2614 16.4427 9.17456 16.2936 9.07977 16.1308C8.86149 15.756 8.60102 15.3088 8.34054 14.8312C7.96693 14.084 7.59333 13.3368 7.282 12.5896C7.21973 12.4651 7.21973 12.4028 7.21973 12.3405V12.216L7.282 12.1537C7.34426 12.0915 7.4688 12.0292 7.71787 12.0292H9.95949C9.99062 12.0292 10.0218 12.0448 10.0529 12.0603C10.084 12.0759 10.1151 12.0915 10.1463 12.0915C10.2086 12.0915 10.2708 12.1537 10.2708 12.1537H10.3331C10.3954 12.216 10.4576 12.2783 10.5199 12.4028C10.5822 12.5585 10.6444 12.6986 10.7067 12.8387C10.769 12.9788 10.8312 13.1189 10.8935 13.2745C11.018 13.5859 11.1426 13.8349 11.2048 13.9595L11.3294 14.2085C11.4145 14.4639 11.5286 14.661 11.6322 14.8397C11.6801 14.9226 11.7258 15.0014 11.7652 15.0803C11.8898 15.3293 12.0143 15.5162 12.1388 15.6407C12.2011 15.7652 12.3256 15.8898 12.4502 15.952C12.5124 16.0143 12.637 16.0766 12.6992 16.0766C12.7722 16.0766 12.8238 16.0552 12.8665 16.0375C12.8967 16.025 12.9225 16.0143 12.9483 16.0143C13.0106 16.0143 13.0106 15.952 13.0106 15.952C13.0546 15.952 13.0675 15.9209 13.0933 15.8586C13.104 15.8328 13.1169 15.8017 13.1351 15.7652C13.1974 15.703 13.2596 15.5784 13.2596 15.3916C13.2596 15.3101 13.2715 15.2285 13.2849 15.1367C13.3021 15.018 13.3219 14.8821 13.3219 14.7067V13.7104C13.3219 13.4613 13.3219 13.2745 13.2596 13.0877C13.2359 13.0164 13.2212 12.9541 13.2086 12.9009C13.1883 12.8149 13.1736 12.7526 13.1351 12.7141L13.0728 12.5896C12.9483 12.4028 12.6992 12.2783 12.3879 12.216C12.3256 12.216 12.3256 12.1537 12.4502 12.0292C12.5124 11.9047 12.637 11.8424 12.7615 11.7801L12.7615 11.7801C13.0106 11.6556 13.6955 11.5933 14.6918 11.5933C15.1277 11.5933 15.5013 11.6556 15.8126 11.7179C15.8437 11.749 15.8904 11.7646 15.9371 11.7801C15.9838 11.7957 16.0305 11.8113 16.0617 11.8424L16.2485 12.0292C16.2485 12.0603 16.264 12.107 16.2796 12.1537C16.2952 12.2004 16.3107 12.2471 16.3107 12.2783V12.6519V13.0877V13.6481V14.3331V14.7067V15.0803V15.3916C16.338 15.4462 16.3534 15.5008 16.3672 15.5502C16.385 15.6134 16.4003 15.668 16.4353 15.703L16.6221 15.8898C16.6221 15.952 16.6843 15.952 16.7466 15.952C16.7466 16.0143 16.8711 15.952 16.9334 15.8898C16.9736 15.8093 17.0398 15.7549 17.1152 15.6929C17.1565 15.6588 17.2006 15.6225 17.2447 15.5784C17.3359 15.4872 17.4271 15.3627 17.5427 15.2048C17.585 15.147 17.6306 15.0847 17.6806 15.018C17.8674 14.769 18.0542 14.4577 18.2409 14.1464L18.241 14.1463C18.3038 14.0207 18.3665 13.8977 18.4288 13.7757C18.6754 13.2926 18.9139 12.8251 19.1128 12.2783C19.1128 12.216 19.1128 12.216 19.175 12.1537L19.175 12.1537L19.2373 12.0915H19.2996H19.3618H19.4864H19.6732H22.0393C22.2261 12.0292 22.4129 12.0292 22.5375 12.0915C22.662 12.0915 22.7243 12.1537 22.7865 12.216L22.8488 12.2783C22.9733 12.6519 22.5375 13.4613 21.6034 14.7067C21.4753 14.8349 21.3764 14.963 21.2465 15.1314C21.1871 15.2085 21.1212 15.2939 21.043 15.3916C21.011 15.4329 20.9799 15.4728 20.9498 15.5113C20.5715 15.9972 20.3535 16.2771 20.2958 16.4502C20.2336 16.6992 20.2336 16.886 20.4204 17.1351C20.4542 17.1689 20.4927 17.212 20.5382 17.263C20.6602 17.3996 20.8333 17.5933 21.1053 17.82C21.8525 18.505 22.4129 19.1277 22.662 19.6258C22.662 19.6569 22.6776 19.6725 22.6931 19.6881Z" fill="#DB3E6D"/>
</svg>
