<svg width="31" height="31" viewBox="0 0 31 31" fill="none" xmlns="http://www.w3.org/2000/svg">
<path fill-rule="evenodd" clip-rule="evenodd" d="M15.4226 30.9138C23.7069 30.9138 30.4226 24.1981 30.4226 15.9138C30.4226 7.62955 23.7069 0.913818 15.4226 0.913818C7.13834 0.913818 0.422607 7.62955 0.422607 15.9138C0.422607 24.1981 7.13834 30.9138 15.4226 30.9138ZM15.825 7.66383C17.9104 7.66383 19.886 8.48414 21.3677 9.96071C22.8494 11.4373 23.6177 13.406 23.6726 15.4295C23.6726 19.7498 20.1604 23.2498 15.825 23.2498C14.508 23.2498 13.2458 22.9216 12.0933 22.3201L7.92261 23.4138L9.02017 19.367C8.36163 18.2185 7.97748 16.8513 7.97748 15.4841C7.97748 11.1638 11.4897 7.66383 15.825 7.66383ZM18.2946 19.2029C18.6787 19.1482 19.447 18.7107 19.6116 18.2732C19.7763 17.8357 19.7763 17.4529 19.7214 17.2888C19.6665 17.2341 19.5568 17.1795 19.3372 17.0701C19.1726 16.9607 18.1848 16.4685 18.0202 16.4138C17.8555 16.3591 17.6909 16.3045 17.5811 16.5232C17.4714 16.742 17.0872 17.1795 16.9775 17.2888C16.8677 17.3982 16.758 17.4529 16.5385 17.3435C16.5052 17.3269 16.4631 17.3078 16.4129 17.2851C16.1321 17.1578 15.5988 16.9159 14.947 16.3591C14.3433 15.8123 13.9592 15.2107 13.8494 14.992C13.7397 14.8279 13.8494 14.7185 13.9592 14.6091C13.9819 14.5865 14.0141 14.5451 14.0517 14.4965C14.105 14.4279 14.1693 14.3451 14.2336 14.281C14.3433 14.1716 14.3982 14.0623 14.4531 13.9529C14.508 13.8435 14.508 13.7341 14.4531 13.6248C14.4169 13.5887 14.2375 13.1484 14.0723 12.7429C13.987 12.5334 13.9055 12.3333 13.8494 12.2029C13.7023 11.8607 13.5551 11.8681 13.4471 11.8735C13.4343 11.8742 13.4221 11.8748 13.4104 11.8748H13.0263C12.8616 11.8748 12.6421 11.8748 12.4775 12.0935C12.4557 12.1225 12.4282 12.1552 12.3968 12.1926C12.1908 12.4376 11.819 12.88 11.819 13.7341C11.819 14.7185 12.5324 15.6482 12.6421 15.7576C12.6452 15.7621 12.6491 15.7681 12.6539 15.7753C12.8225 16.03 14.0689 17.9132 15.9897 18.7107C16.2958 18.8632 16.5752 18.9626 16.8093 19.0458C16.911 19.082 17.0042 19.1151 17.0872 19.1482C17.5263 19.2576 17.9653 19.2576 18.2946 19.2029Z" fill="#DB3E6D"/>
</svg>
