<svg width="31" height="31" viewBox="0 0 31 31" fill="none" xmlns="http://www.w3.org/2000/svg">
<path fill-rule="evenodd" clip-rule="evenodd" d="M15.7383 30.9138C24.0226 30.9138 30.7383 24.1981 30.7383 15.9138C30.7383 7.62955 24.0226 0.913818 15.7383 0.913818C7.45401 0.913818 0.738281 7.62955 0.738281 15.9138C0.738281 24.1981 7.45401 30.9138 15.7383 30.9138ZM22.2515 14.6623C22.2627 14.8182 22.2731 14.9637 22.2731 15.0987V16.2138V17.329V17.3292C22.2731 17.62 22.2731 17.9594 22.2247 18.3472C22.2247 18.7835 22.1762 19.1229 22.0792 19.4623C21.9822 19.8502 21.7883 20.1411 21.5459 20.3835C21.3034 20.6259 20.964 20.7714 20.6246 20.8199C19.558 20.9653 17.861 21.0138 15.6307 21.0138C13.4004 21.0138 11.7519 20.9653 10.6368 20.8199C10.2974 20.7714 9.95798 20.6259 9.71555 20.3835C9.42464 20.1411 9.27919 19.8502 9.18222 19.4623C9.13377 19.1232 9.08533 18.7357 9.03689 18.3481L9.03677 18.3472C9.03677 18.1393 9.02284 17.9454 9.00992 17.7653C8.99872 17.6094 8.98828 17.464 8.98828 17.329V16.2138V15.0987C8.98828 14.8078 8.98828 14.4684 9.03677 14.0805C9.03677 13.6441 9.08525 13.3047 9.18222 12.9653C9.27919 12.5775 9.47313 12.2865 9.71555 12.0441C9.95798 11.8017 10.2974 11.6562 10.6368 11.6078C11.7034 11.4623 13.4004 11.4138 15.6307 11.4138C17.861 11.4138 19.5095 11.4623 20.6246 11.6078C20.964 11.6562 21.3034 11.8017 21.5459 12.0441C21.8368 12.2865 21.9822 12.5775 22.0792 12.9653C22.1277 13.3047 22.1762 13.6926 22.2247 14.0805C22.2247 14.2884 22.2386 14.4823 22.2515 14.6623ZM14.3701 18.9775L18.2004 16.6017C18.3459 16.5047 18.4428 16.2623 18.4428 16.1168C18.4428 15.9714 18.3459 15.8259 18.2004 15.729L14.3701 13.3532C14.2246 13.2562 14.0307 13.2562 13.8853 13.3532C13.7398 13.4502 13.6428 13.5956 13.6428 13.7896V18.5896C13.6428 18.7835 13.7398 18.929 13.8853 19.0259C13.9822 19.0744 14.0307 19.0744 14.1277 19.0744C14.2246 19.0744 14.3216 19.0259 14.3701 18.9775Z" fill="#DB3E6D"/>
</svg>
